<svg id="Layer_1" data-name="Layer 1" xmlns="http://www.w3.org/2000/svg" viewBox="0 0 640 640"><defs><style>.cls-1{fill:#00bcd4;}.cls-2{fill:#f2f2f2;}</style></defs><title>favicon</title><rect class="cls-1" width="640" height="640" rx="320" ry="320"/><path id="path2734" class="cls-2" d="M114.7,157.51c-11.41,2.59-18.6,6.54-20.87,11.57-3,6.71-1.45,10.08,5.33,11.49A23.5,23.5,0,0,1,109.86,187c2.65,2.94,8.51,7.7,14.16,8.39,17.07,2.08,13.8,8.11,29.3,14.54,11.61,4.81,22.46,11.91,25.69,12.66s12,.25,20.06-1.18c18.5-3.28,39.84-.92,36.78,4.05-.43.69-4.7.83-9.55.31s-10.64-.8-11.38-.05a82.44,82.44,0,0,1,8.5,12.88c9.9,29.11,3,14.95-.61,5.11-1-2.67-3.64-7-5.18-10-3.64-5.3-3.73-6.69-9.1-7.94-4.27-1.22-9-1-15,.61l-8.78,2.39-4.62,15.78c-5.33,18.3-9.47,48.14-9.77,70.52-.23,17.13,4.16,53,7.19,58.76,1.18,2.25,4.91,4.33,9.75,5.46a85.78,85.78,0,0,1,15.65,5.76c9.83,4.94,21.41,5.58,40.63,2.2,11.17-2,20.28-2.2,35.47-.92a319.36,319.36,0,0,0,39.25.33c29.86-1.92,21.12-10.68,19.5,13.83-.58,8.73-1.4,9.8-10.89,12.12-11.88,2.91-13.09,2.35-15.41-7.27-2.45-10.14-6.65-14.3-14.29-14.12-3.09.07-13.6-.46-23.36-1.2s-20.14-1.26-23.08-1.16c-7.27.25-9,3.83-5,10.71,3.83,6.7,9.43,29.91,7.66,31.69-.75.75-24.37,9.2-52.47,18.78-31.95,10.89-53.51,19-57.44,21.65a37.34,37.34,0,0,0-10,11.38c-3.25,6.13-3.43,8-1.34,13.37,3.94,10.1,14.06,14.89,28.89,13.72a49.38,49.38,0,0,0,9.91-2.23c3.09-1.06,18.39-5.83,34-10.59,114.43-34.88,232.44-63,333-79.42,43.26-7,50-9.36,67.55-23,11-8.55,16.26-16.91,14.72-23.29-1.47-6.07-14.32-13.1-27.07-14.76-10-1.31-14.13-.68-58.77,8.92-26.39,5.68-48.9,10.5-50,10.69s-3.63-1.42-5.54-3.57c-5.64-6.35-23-18.15-33.44-22.65A119.57,119.57,0,0,0,424.61,344c-6.49-1.25-13.41-4-16.85-6.71-5.73-4.5-26-10.37-31.35-9.08-1.49.36-5.87-1.33-9.72-3.74a30.91,30.91,0,0,0-14-4.48l-13.32-.18a29.66,29.66,0,0,1-11.74-3.09c-3-1.65-6.69-2.69-8.23-2.32s-4.56-1.25-6.73-3.55c-3-3.18-5.61-4-10.87-3.57-3.79.3-7.76-.13-8.82-.94-4.64-2.35,0-9-10.08-17.82.55-4,5.24-9.29,7.86-15.62.69-.77,3.9.44-5.53,15,11.82,8.36,8.72,10.71,8.55,12-2.55,3.67,2.43,5.08,8.42,3.63,1.08-.26,5.13.7,9,2.14,8.49,3.15,14.1,10.08,7.58.23a33.41,33.41,0,0,0-8.2-8.26c-7.22-4.88-7.4-5.17-7-12.11.31-5.44-.28-8-2.51-10.82-4-5-5.15-10.76-2.85-13.82,2.58-3.43,4.06-15.66,3.1-25.88l-.78-8.39L307,225c4.87-1.2,8.32-3.64,13.37-9.49,3.74-4.33,8.18-8.67,9.85-9.66s3.85-4.14,4.84-7,3-8.13,4.56-11.73c3.31-7.8,2.39-12.56-4.77-24.46-10.75-17.88-28.29-28.22-42.49-25-8.34,1.9-17.82,10-22.9,28.49,9.92,5.82,27.92,38.8,27.73,47.33-21.14-44.22-33.68-50.19-38.29-52-9.91-3.87-20.4-3.2-28.55,1.83-5.28,3.26-6.38,3.36-11.6,1.29a21.51,21.51,0,0,0-13.12-.49c-4.47,1.08-11.51,1-17.91-.25a63.82,63.82,0,0,0-22.36,0c-9.51,1.6-8.34,7.81-15.5-.89-6.7-8.14-18.11-8.61-30-6.54C118,156.8,116.34,157.14,114.7,157.51Zm49.91,26.65c.22.91-5,9.8-5.69,11.13-2.28,4.56-11.57,4.36-11.64,4.05s18.22-7.57,13-27.79C163.36,172.9,164.24,180.27,164.61,184.16Zm120.66-16.87a.42.42,0,0,1,.21,0c1.19-.14,7.1,2.46,14.32,6.35,8.26,4.45,15.15,8.65,15.32,9.35.6,2.5-2.28,1.78-8.58-2.19-3.54-2.22-9.65-5.66-13.6-7.66s-7.41-4.56-7.67-5.64C285.25,167.38,285.24,167.32,285.28,167.29Zm38,18.68c.38-.07,1.2.34,2.63,1.2,1.81,1.1,6,6.72,5.89,7.82-.24,2.72-8.49-7.23-14.36-9.18C316.41,185.46,319.58,183.95,323.3,186Zm-33,125.55c1-.35,2.86,4,2.83,7.05-.09,9-7.84,20.17-21.63,28.13-15,8.59-20.86,10.17-34.87,12.68-3.73,5.57-31.13,13.35-32.89,13.85s-13.75,2.66-13.34,2c.21-.34,11.64-2.9,12.21-3.06,38.83-14.8,18.73-11.33,42.82-18,17.51-2.91,36.7-20.94,40.49-28.24C289.24,319.51,289.06,312,290.29,311.52Zm106.94,82.82c13.95,3,0,3-6.45,4.58-6.79,1.64-8.58,1.33-14.77-2.79-7.4-4.93-10.12-7.63-8-9.74C377,385.66,389.52,389.28,397.23,394.35Z"/></svg>